<svg width="27" height="25" viewBox="0 0 27 25" fill="none" xmlns="http://www.w3.org/2000/svg">
<path d="M13.5011 2.06787C16.6722 -0.784448 21.5726 -0.689776 24.6276 2.37623C27.6812 5.44358 27.7865 10.3286 24.9462 13.515L13.4984 25L2.05332 13.515C-0.787027 10.3286 -0.680379 5.43547 2.37191 2.37623C5.42961 -0.685719 10.3206 -0.788505 13.5011 2.06787ZM22.716 4.28724C20.6911 2.25586 17.4241 2.17336 15.3047 4.08031L13.5025 5.70055L11.6989 4.08167C9.57268 2.17201 6.31249 2.25586 4.28213 4.28994C2.27067 6.30509 2.16942 9.53068 4.02293 11.6621L13.4998 21.1712L22.9766 11.6635C24.8314 9.53068 24.7302 6.30915 22.716 4.28724Z" fill="white"/>
</svg>
