<svg width="24" height="25" viewBox="0 0 24 25" fill="none" xmlns="http://www.w3.org/2000/svg">
<path d="M14.7686 19.4351L7.9548 15.7682C7.30075 16.4088 6.46912 16.844 5.56476 17.019C4.66041 17.1939 3.7238 17.1007 2.87304 16.7512C2.02227 16.4016 1.29542 15.8114 0.784133 15.0548C0.272844 14.2983 0 13.4093 0 12.5C0 11.5907 0.272844 10.7017 0.784133 9.94515C1.29542 9.18861 2.02227 8.59836 2.87304 8.24882C3.7238 7.89929 4.66041 7.80611 5.56476 7.98104C6.46912 8.15597 7.30075 8.59117 7.9548 9.23178L14.7686 5.56491C14.5349 4.48305 14.7037 3.35434 15.2441 2.38518C15.7845 1.41602 16.6603 0.671182 17.7116 0.286866C18.7628 -0.0974488 19.9191 -0.095556 20.969 0.292199C22.0189 0.679954 22.8923 1.42766 23.4294 2.39858C23.9666 3.3695 24.1315 4.49876 23.8942 5.57985C23.6569 6.66094 23.0331 7.62161 22.1369 8.28619C21.2408 8.95077 20.1321 9.27484 19.0137 9.19915C17.8953 9.12346 16.8418 8.65306 16.046 7.87398L9.23222 11.5409C9.36814 12.1733 9.36814 12.8267 9.23222 13.4592L16.046 17.126C16.8418 16.3469 17.8953 15.8765 19.0137 15.8008C20.1321 15.7252 21.2408 16.0492 22.1369 16.7138C23.0331 17.3784 23.6569 18.3391 23.8942 19.4202C24.1315 20.5012 23.9666 21.6305 23.4294 22.6014C22.8923 23.5723 22.0189 24.32 20.969 24.7078C19.9191 25.0956 18.7628 25.0975 17.7116 24.7131C16.6603 24.3288 15.7845 23.584 15.2441 22.6148C14.7037 21.6457 14.5349 20.5169 14.7686 19.4351Z" fill="white"/>
</svg>
